<svg width="13" height="18" viewBox="0 0 13 18" fill="none" xmlns="http://www.w3.org/2000/svg">
<path d="M12.2006 14.4038L11.6629 16.6121C11.5636 17.0271 11.2974 17.3812 10.9297 17.5876C10.562 17.7939 10.1269 17.8334 9.7313 17.6963C7.57073 16.9023 5.62629 15.6021 4.05419 13.9001C2.58588 12.3398 1.47486 10.4673 0.800081 8.41541C0.0481186 6.19418 -0.178401 3.82061 0.13877 1.48686C0.202572 1.06629 0.436743 0.691312 0.784207 0.453452C1.13162 0.215657 1.56033 0.136873 1.96553 0.236422L4.13035 0.770485C4.8565 0.941922 5.34206 1.63589 5.26525 2.39261C5.18454 3.12183 5.18502 3.85756 5.26667 4.58565C5.33393 5.17252 5.05942 5.74777 4.56376 6.0587L3.41969 6.76746C3.99816 8.86373 5.12239 10.7586 6.67379 12.2522L7.81782 11.5435C8.31691 11.2381 8.94293 11.2555 9.4211 11.5878C10.0151 11.9985 10.6532 12.3393 11.3233 12.6034C12.0235 12.8868 12.4008 13.6611 12.2006 14.4038Z" fill="#EEEEEE"/>
</svg>
