<svg width="24" height="24" viewBox="0 0 24 24" fill="none" xmlns="http://www.w3.org/2000/svg">
<path fill-rule="evenodd" clip-rule="evenodd" d="M12.7494 1.7334C12.7494 1.31918 12.4136 0.983398 11.9994 0.983398C11.5852 0.983398 11.2494 1.31918 11.2494 1.7334V3.20007C11.2494 3.2106 11.2496 3.22108 11.25 3.23151C6.98762 3.5908 3.59008 6.98818 3.23056 11.2505C3.22012 11.2501 3.20963 11.2499 3.19909 11.2499H1.73242C1.31821 11.2499 0.982422 11.5857 0.982422 11.9999C0.982422 12.4141 1.31821 12.7499 1.73242 12.7499H3.19909C3.20962 12.7499 3.2201 12.7497 3.23053 12.7492C3.58988 17.0118 6.98749 20.4093 11.25 20.7686C11.2496 20.7791 11.2494 20.7896 11.2494 20.8002V22.2668C11.2494 22.6811 11.5852 23.0168 11.9994 23.0168C12.4136 23.0168 12.7494 22.6811 12.7494 22.2668V20.8002C12.7494 20.7896 12.7492 20.7791 12.7487 20.7686C17.011 20.409 20.4083 17.0116 20.7676 12.7492C20.778 12.7497 20.7884 12.7499 20.7988 12.7499H22.2655C22.6797 12.7499 23.0155 12.4141 23.0155 11.9999C23.0155 11.5857 22.6797 11.2499 22.2655 11.2499H20.7988C20.7884 11.2499 20.778 11.2501 20.7676 11.2505C20.4081 6.98837 17.0109 3.59111 12.7487 3.23156C12.7492 3.22111 12.7494 3.21061 12.7494 3.20007V1.7334ZM11.9991 19.3001C16.0308 19.3001 19.2991 16.0318 19.2991 12.0001C19.2991 7.96839 16.0308 4.70007 11.9991 4.70007C7.96741 4.70007 4.69909 7.96839 4.69909 12.0001C4.69909 16.0318 7.96741 19.3001 11.9991 19.3001ZM14.8985 12.0002C14.8985 13.6018 13.6001 14.9002 11.9985 14.9002C10.3969 14.9002 9.0985 13.6018 9.0985 12.0002C9.0985 10.3986 10.3969 9.10022 11.9985 9.10022C13.6001 9.10022 14.8985 10.3986 14.8985 12.0002ZM16.3985 12.0002C16.3985 14.4303 14.4286 16.4002 11.9985 16.4002C9.56845 16.4002 7.5985 14.4303 7.5985 12.0002C7.5985 9.57017 9.56845 7.60022 11.9985 7.60022C14.4286 7.60022 16.3985 9.57017 16.3985 12.0002Z" fill="#946AEF"/>
</svg>
