<svg width="19" height="16" viewBox="0 0 19 16" xmlns="http://www.w3.org/2000/svg">
<path fill="#000" d="M9.96603 1.47583C10.9616 0.52763 12.3058 0 13.7013 0C15.0968 0 16.4409 0.527556 17.4364 1.47563C18.4335 2.4244 19 3.71832 19 5.0746C19 6.43082 18.4336 7.72475 17.4365 8.67351C17.4365 8.67354 17.4365 8.67357 17.4364 8.6736L9.91996 15.829C9.68042 16.057 9.30435 16.057 9.0648 15.829L2.44955 9.53154L1.54826 8.67355L1.54625 8.67163C-0.522057 6.68497 -0.514326 3.46731 1.56301 1.48977C3.62287 -0.471099 6.94783 -0.478078 9.01666 1.47382L9.01867 1.47573L9.49239 1.92669L9.96603 1.47583ZM13.7013 1.24238C12.6155 1.24238 11.58 1.65345 10.8214 2.37595L10.8213 2.37605L9.91996 3.23405C9.68041 3.46208 9.30435 3.46208 9.0648 3.23404L8.16552 2.37795C8.16519 2.37765 8.16487 2.37734 8.16454 2.37703C6.57503 0.878358 3.99999 0.884288 2.41817 2.39009C0.85382 3.87929 0.847999 6.27819 2.40445 7.77421C2.40478 7.77452 2.4051 7.77483 2.40543 7.77515L9.49238 14.5216L16.5814 7.77319L16.5815 7.77309C17.3394 7.05193 17.759 6.08049 17.759 5.0746C17.759 4.06871 17.3394 3.09731 16.5815 2.37614L16.5813 2.37595C15.8227 1.65345 14.7872 1.24238 13.7013 1.24238Z"/>
</svg>
