<?xml version="1.0" encoding="iso-8859-1"?>
<!-- Generator: Adobe Illustrator 16.0.0, SVG Export Plug-In . SVG Version: 6.00 Build 0)  -->
<!DOCTYPE svg PUBLIC "-//W3C//DTD SVG 1.1//EN" "http://www.w3.org/Graphics/SVG/1.1/DTD/svg11.dtd">
<svg version="1.1" id="Layer_1" xmlns="http://www.w3.org/2000/svg" xmlns:xlink="http://www.w3.org/1999/xlink" x="0px" y="0px"
	 width="500px" height="500px" viewBox="0 0 500 500" style="enable-background:new 0 0 500 500;" xml:space="preserve">
<path style="fill:#391B1B;" d="M248.129,77.391c-106.612,0-193.031,68.317-193.031,152.602c0,54.856,36.618,102.932,91.574,129.83
	c-4.037,15.076-14.618,54.612-16.744,63.067c-2.612,10.499,3.853,10.357,8.084,7.53c3.318-2.21,52.896-35.909,74.288-50.457
	c11.607,1.72,23.583,2.634,35.83,2.634c106.608,0,193.031-68.333,193.031-152.604C441.16,145.708,354.737,77.391,248.129,77.391"/>
<g>
	<path style="fill:#FAE300;" d="M170.452,185.048h-56.449c-5.305,0-9.603,4.299-9.603,9.599c0,5.304,4.297,9.603,9.603,9.603h18.351
		v67.622c0,2.457,1.002,4.875,2.763,6.627c1.722,1.738,4.133,2.739,6.601,2.739h2.051c2.458,0,4.86-1.001,6.588-2.735
		c1.756-1.752,2.762-4.156,2.762-6.631V204.25h17.334c5.31,0,9.608-4.298,9.608-9.603
		C180.061,189.347,175.762,185.048,170.452,185.048z"/>
	<path style="fill:#FAE300;" d="M306.108,263.181h-26.247v-69.064c0-5.759-4.661-10.422-10.413-10.422
		c-5.754,0-10.415,4.663-10.415,10.422v74.443c0,0.577,0.072,1.12,0.162,1.667c-0.104,0.537-0.162,1.103-0.162,1.661
		c0,4.82,3.887,8.725,8.712,8.725h38.363c4.825,0,8.711-3.904,8.711-8.725C314.819,267.086,310.934,263.181,306.108,263.181z"/>
	<path style="fill:#FAE300;" d="M389.991,266.347l-29.253-38.418l26.429-26.44c3.58-3.572,3.58-9.383,0.004-12.961
		c-3.575-3.577-9.382-3.577-12.972,0l-32.719,32.719v-27.129c0-5.759-4.66-10.422-10.412-10.422
		c-5.755,0-10.418,4.663-10.418,10.422v76.729c0,5.764,4.663,10.417,10.418,10.417c5.752,0,10.412-4.653,10.412-10.417v-23.674
		l5.948-5.941l27.669,36.31c3.079,4.114,8.933,4.958,13.039,1.854C392.251,276.306,393.079,270.461,389.991,266.347z"/>
	<path style="fill:#FAE300;" d="M251.236,268.843l-28.132-76.958c0,0-0.066-0.062-0.094-0.086
		c-1.803-4.687-6.989-8.104-13.181-8.104c-6.868,0-12.548,4.196-13.676,9.688c-0.192,0.408-0.384,0.82-0.538,1.265l-27.663,74.196
		c-1.708,4.87,0.852,10.193,5.702,11.898c4.86,1.71,10.195-0.854,11.903-5.712l4.786-13.664h38.502l4.784,13.664
		c1.709,4.857,7.037,7.422,11.897,5.712C250.382,279.036,252.944,273.713,251.236,268.843z M196.453,243.927l12.937-36.916
		c0.146,0,0.272,0.039,0.417,0.039l12.928,36.876H196.453z"/>
</g>
</svg>
