<svg width="12" height="12" viewBox="0 0 12 12" fill="none" xmlns="http://www.w3.org/2000/svg">
<path d="M8.76957 7.38338C8.64914 7.38411 8.5332 7.33772 8.4465 7.25412L6.4896 5.36134C6.18914 5.07387 5.95002 4.7285 5.78665 4.34606C5.62329 3.96363 5.53906 3.55205 5.53906 3.13617C5.53906 2.72029 5.62329 2.30871 5.78665 1.92627C5.95002 1.54384 6.18914 1.19847 6.4896 0.910999C7.10469 0.326135 7.92091 0 8.76957 0C9.61823 0 10.4345 0.326135 11.0495 0.910999C11.35 1.19847 11.5891 1.54384 11.7525 1.92627C11.9159 2.30871 12.0001 2.72029 12.0001 3.13617C12.0001 3.55205 11.9159 3.96363 11.7525 4.34606C11.5891 4.7285 11.35 5.07387 11.0495 5.36134L9.09264 7.25412C9.00594 7.33772 8.89 7.38411 8.76957 7.38338ZM8.76957 0.920232C8.15882 0.916492 7.57082 1.15176 7.13113 1.57578C6.91942 1.77677 6.75082 2.01877 6.63561 2.28703C6.52039 2.55529 6.46098 2.8442 6.46098 3.13617C6.46098 3.42814 6.52039 3.71705 6.63561 3.98531C6.75082 4.25357 6.91942 4.49557 7.13113 4.69656L8.76957 6.28003L10.408 4.69656C10.6197 4.49557 10.7883 4.25357 10.9035 3.98531C11.0187 3.71705 11.0782 3.42814 11.0782 3.13617C11.0782 2.8442 11.0187 2.55529 10.9035 2.28703C10.7883 2.01877 10.6197 1.77677 10.408 1.57578C9.96778 1.15259 9.38013 0.91747 8.76957 0.920232Z" fill="black"/>
<path d="M3.69226 12C3.61141 12.0005 3.53184 11.9798 3.4615 11.94L0.23077 10.0933C0.160338 10.0527 0.101901 9.99411 0.0613774 9.92358C0.0208533 9.85305 -0.000319235 9.77306 3.63821e-06 9.69171V1.38195C-0.000319235 1.3006 0.0208533 1.22061 0.0613774 1.15008C0.101901 1.07955 0.160338 1.02098 0.23077 0.980307C0.300932 0.939788 0.38052 0.918457 0.461536 0.918457C0.542552 0.918457 0.622141 0.939788 0.692302 0.980307L3.92303 2.82692C3.99346 2.86759 4.0519 2.92616 4.09242 2.99669C4.13295 3.06722 4.15412 3.14721 4.1538 3.22856V11.5383C4.15412 11.6197 4.13295 11.6997 4.09242 11.7702C4.0519 11.8407 3.99346 11.8993 3.92303 11.94C3.85269 11.9798 3.77311 12.0005 3.69226 12ZM0.923069 9.42395L3.23073 10.7443V3.49632L0.923069 2.17599V9.42395Z" fill="black"/>
<path d="M3.692 12.0002C3.61116 12.0008 3.53158 11.9801 3.46124 11.9402C3.39081 11.8995 3.33237 11.8409 3.29185 11.7704C3.25132 11.6999 3.23015 11.6199 3.23047 11.5386V3.22878C3.23015 3.14744 3.25132 3.06745 3.29185 2.99692C3.33237 2.92639 3.39081 2.86782 3.46124 2.82715L6.23043 1.24367C6.28339 1.21334 6.34183 1.1938 6.40237 1.18621C6.46292 1.17861 6.52438 1.1831 6.58318 1.19941C6.64198 1.21573 6.69697 1.24354 6.74495 1.28125C6.79294 1.31896 6.83297 1.36582 6.86273 1.4191C6.9229 1.52511 6.93872 1.65061 6.90673 1.76823C6.87474 1.88586 6.79753 1.98605 6.69197 2.04695L4.15354 3.49654V10.7445L6.69197 9.2903C6.7447 9.25998 6.80288 9.24036 6.86319 9.23254C6.92351 9.22472 6.98477 9.22885 7.04348 9.24471C7.1022 9.26058 7.15721 9.28785 7.20539 9.32498C7.25357 9.36211 7.29396 9.40837 7.32427 9.46111C7.35457 9.51385 7.37419 9.57205 7.38201 9.63238C7.38983 9.69271 7.38569 9.75399 7.36983 9.81272C7.35398 9.87145 7.32671 9.92648 7.28959 9.97467C7.25247 10.0229 7.20623 10.0633 7.1535 10.0936L3.92277 11.9402C3.85243 11.9801 3.77285 12.0008 3.692 12.0002Z" fill="black"/>
<path d="M10.1532 12C10.0724 12.0006 9.99277 11.9799 9.92244 11.94L6.69171 10.0934C6.62128 10.0527 6.56284 9.99413 6.52232 9.9236C6.48179 9.85307 6.46062 9.77308 6.46094 9.69173V5.53685C6.46094 5.41441 6.50957 5.29699 6.59612 5.21041C6.68267 5.12383 6.80007 5.0752 6.92247 5.0752C7.04488 5.0752 7.16227 5.12383 7.24883 5.21041C7.33538 5.29699 7.38401 5.41441 7.38401 5.53685V9.42397L9.69167 10.7443V5.9985C9.69167 5.87606 9.74029 5.75864 9.82685 5.67206C9.9134 5.58549 10.0308 5.53685 10.1532 5.53685C10.2756 5.53685 10.393 5.58549 10.4796 5.67206C10.5661 5.75864 10.6147 5.87606 10.6147 5.9985V11.5383C10.6151 11.6197 10.5939 11.6997 10.5534 11.7702C10.5128 11.8407 10.4544 11.8993 10.384 11.94C10.3136 11.9799 10.2341 12.0006 10.1532 12Z" fill="black"/>
<path d="M8.76936 4.61367C8.49552 4.61367 8.22782 4.53245 8.00012 4.38026C7.77243 4.22808 7.59496 4.01178 7.49016 3.75871C7.38537 3.50564 7.35795 3.22718 7.41137 2.95852C7.4648 2.68986 7.59667 2.44309 7.79031 2.2494C7.98394 2.05571 8.23066 1.9238 8.49924 1.87036C8.76783 1.81692 9.04622 1.84435 9.29923 1.94917C9.55223 2.054 9.76847 2.23151 9.92062 2.45927C10.0728 2.68702 10.154 2.95479 10.154 3.22871C10.154 3.59603 10.0081 3.9483 9.74842 4.20803C9.48876 4.46776 9.13658 4.61367 8.76936 4.61367ZM8.76936 2.76706C8.67808 2.76706 8.58885 2.79413 8.51295 2.84486C8.43705 2.89559 8.3779 2.96769 8.34296 3.05204C8.30803 3.1364 8.29889 3.22922 8.3167 3.31878C8.33451 3.40833 8.37846 3.49059 8.44301 3.55515C8.50756 3.61971 8.58979 3.66368 8.67932 3.68149C8.76885 3.69931 8.86165 3.69017 8.94598 3.65522C9.03032 3.62028 9.1024 3.56111 9.15311 3.48519C9.20383 3.40927 9.2309 3.32002 9.2309 3.22871C9.2309 3.10627 9.18227 2.98885 9.09572 2.90227C9.00916 2.8157 8.89177 2.76706 8.76936 2.76706Z" fill="black"/>
</svg>
