<svg width="8" height="8" viewBox="0 0 8 8" fill="none" xmlns="http://www.w3.org/2000/svg">
<path d="M3.6 6.4H4.4V5.6H3.6V6.4ZM4 0C1.792 0 0 1.792 0 4C0 6.208 1.792 8 4 8C6.208 8 8 6.208 8 4C8 1.792 6.208 0 4 0ZM4 7.2C2.236 7.2 0.8 5.764 0.8 4C0.8 2.236 2.236 0.8 4 0.8C5.764 0.8 7.2 2.236 7.2 4C7.2 5.764 5.764 7.2 4 7.2ZM4 1.6C3.116 1.6 2.4 2.316 2.4 3.2H3.2C3.2 2.76 3.56 2.4 4 2.4C4.44 2.4 4.8 2.76 4.8 3.2C4.8 4 3.6 3.9 3.6 5.2H4.4C4.4 4.3 5.6 4.2 5.6 3.2C5.6 2.316 4.884 1.6 4 1.6Z" fill="black"/>
</svg>
