<svg width="28" height="28" viewBox="0 0 28 28" fill="none" xmlns="http://www.w3.org/2000/svg">
<path d="M26.54 10.3535L25.2193 9.03282C24.6024 8.41586 23.5986 8.41596 22.9817 9.03282L20.1998 11.8146V2.87335C20.1998 1.56468 19.1352 0.5 17.8265 0.5H2.37335C1.06468 0.5 0 1.56468 0 2.87335V25.1301C0 26.4387 1.06468 27.5034 2.37335 27.5034H17.8265C19.1352 27.5034 20.1998 26.4387 20.1998 25.1301V18.8522L26.54 12.5912C27.1569 11.9742 27.1569 10.9704 26.54 10.3535ZM17.0783 19.711L14.6985 20.8216L15.808 18.4441L21.7137 12.5385L23.0194 13.8441L17.0783 19.711ZM18.6176 25.1301C18.6176 25.5663 18.2627 25.9212 17.8265 25.9212H2.37335C1.93713 25.9212 1.58223 25.5663 1.58223 25.1301V2.87335C1.58223 2.43713 1.93713 2.08223 2.37335 2.08223H17.8265C18.2627 2.08223 18.6176 2.43713 18.6176 2.87335V13.3969C14.2307 17.7838 14.5171 17.4687 14.4331 17.6487L12.3447 22.1239C12.204 22.4255 12.2669 22.7827 12.5022 23.0179C12.7374 23.2532 13.0948 23.3161 13.3961 23.1754L17.8714 21.0869C18.0355 21.0103 18.0625 20.9627 18.6176 20.4146V25.1301ZM24.1452 12.7324L22.8325 11.4197L24.1005 10.1516L25.4208 11.4727L24.1452 12.7324Z" fill="white"/>
<path d="M4.21641 7.19875H16.0304C16.4673 7.19875 16.8215 6.84454 16.8215 6.40763C16.8215 5.97073 16.4673 5.61652 16.0304 5.61652H4.21641C3.7795 5.61652 3.42529 5.97073 3.42529 6.40763C3.42529 6.84454 3.7795 7.19875 4.21641 7.19875Z" fill="white"/>
<path d="M4.21641 11.4177H13.4988C13.9357 11.4177 14.29 11.0635 14.29 10.6266C14.29 10.1897 13.9357 9.83548 13.4988 9.83548H4.21641C3.7795 9.83548 3.42529 10.1897 3.42529 10.6266C3.42529 11.0635 3.7795 11.4177 4.21641 11.4177Z" fill="white"/>
<path d="M10.9673 14.055H4.21641C3.7795 14.055 3.42529 14.4092 3.42529 14.8461C3.42529 15.283 3.7795 15.6373 4.21641 15.6373H10.9673C11.4042 15.6373 11.7584 15.283 11.7584 14.8461C11.7584 14.4092 11.4042 14.055 10.9673 14.055Z" fill="white"/>
</svg>
