<svg width="32" height="30" viewBox="0 0 32 30" fill="none" xmlns="http://www.w3.org/2000/svg">
<g filter="url(#filter0_d)">
<path d="M15.524 22.224V22.648H14.076V23.58H13.568V22.648H12.116V22.224H15.524ZM14.076 20.164H15.208V20.588H12.432V20.164H13.564V19.744H14.076V20.164ZM13.82 22.064C13.6493 22.064 13.4933 22.0507 13.352 22.024C13.2133 21.9973 13.0933 21.9587 12.992 21.908C12.8933 21.8547 12.816 21.7907 12.76 21.716C12.704 21.6387 12.676 21.552 12.676 21.456V21.336C12.676 21.24 12.704 21.1547 12.76 21.08C12.816 21.0053 12.8933 20.9427 12.992 20.892C13.0933 20.8387 13.2133 20.7987 13.352 20.772C13.4933 20.7427 13.6493 20.728 13.82 20.728C13.9907 20.728 14.1453 20.7427 14.284 20.772C14.4253 20.7987 14.5453 20.8387 14.644 20.892C14.7453 20.9427 14.824 21.0053 14.88 21.08C14.936 21.1547 14.964 21.24 14.964 21.336V21.456C14.964 21.552 14.936 21.6387 14.88 21.716C14.824 21.7907 14.7453 21.8547 14.644 21.908C14.5453 21.9587 14.4253 21.9973 14.284 22.024C14.1453 22.0507 13.9907 22.064 13.82 22.064ZM13.82 21.132C13.6067 21.132 13.444 21.156 13.332 21.204C13.2227 21.252 13.168 21.3067 13.168 21.368V21.424C13.168 21.4853 13.2227 21.54 13.332 21.588C13.444 21.636 13.6067 21.66 13.82 21.66C14.0333 21.66 14.1947 21.636 14.304 21.588C14.416 21.54 14.472 21.4853 14.472 21.424V21.368C14.472 21.3067 14.416 21.252 14.304 21.204C14.1947 21.156 14.0333 21.132 13.82 21.132ZM18.8886 23.576H18.3806V19.856H18.8886V23.576ZM15.9206 22.412C16.1206 22.292 16.2913 22.1853 16.4326 22.092C16.574 21.9987 16.6913 21.9133 16.7846 21.836C16.8806 21.756 16.9553 21.6813 17.0086 21.612C17.0646 21.54 17.106 21.468 17.1326 21.396C17.162 21.324 17.1806 21.248 17.1886 21.168C17.1966 21.088 17.2006 20.9987 17.2006 20.9V20.624H15.9886V20.188H17.7086V20.924C17.7086 21.0573 17.702 21.1787 17.6886 21.288C17.6753 21.3973 17.6486 21.5 17.6086 21.596C17.5713 21.6893 17.5166 21.78 17.4446 21.868C17.3753 21.956 17.2846 22.048 17.1726 22.144C17.0606 22.2373 16.9233 22.3387 16.7606 22.448C16.6006 22.5547 16.41 22.676 16.1886 22.812L15.9206 22.412ZM19.5493 20.068H21.4693V20.496H20.7773V20.7C20.7773 20.748 20.7799 20.7933 20.7853 20.836C20.7933 20.876 20.8066 20.9147 20.8253 20.952C20.8466 20.9867 20.8733 21.0227 20.9053 21.06C20.9399 21.0973 20.9839 21.136 21.0373 21.176C21.1226 21.24 21.2133 21.3053 21.3093 21.372C21.4053 21.4387 21.5039 21.504 21.6053 21.568L21.3333 21.924C21.1546 21.8067 20.9906 21.6933 20.8413 21.584C20.7559 21.5227 20.6879 21.4707 20.6373 21.428C20.5893 21.3827 20.5613 21.3493 20.5533 21.328H20.5493C20.5413 21.352 20.5106 21.3907 20.4572 21.444C20.4039 21.4947 20.3306 21.556 20.2373 21.628C20.1519 21.6973 20.0639 21.7667 19.9733 21.836C19.8853 21.9027 19.7906 21.9707 19.6893 22.04L19.3933 21.672C19.5213 21.5867 19.6413 21.5 19.7533 21.412C19.8679 21.324 19.9679 21.2427 20.0533 21.168C20.1226 21.1067 20.1759 21.0387 20.2133 20.964C20.2533 20.8867 20.2733 20.7987 20.2733 20.7V20.496H19.5493V20.068ZM19.9773 22.192H22.3493V23.62H21.8453V22.62H19.9773V22.192ZM22.3493 20.7H22.8373V21.14H22.3493V22.024H21.8453V19.856H22.3493V20.7ZM24.9739 23.688C24.8085 23.688 24.6552 23.672 24.5139 23.64C24.3725 23.608 24.2499 23.56 24.1459 23.496C24.0419 23.4347 23.9592 23.36 23.8979 23.272C23.8392 23.184 23.8099 23.084 23.8099 22.972V22.796C23.8099 22.684 23.8392 22.584 23.8979 22.496C23.9592 22.408 24.0419 22.3333 24.1459 22.272C24.2499 22.208 24.3725 22.16 24.5139 22.128C24.6552 22.096 24.8085 22.08 24.9739 22.08C25.1392 22.08 25.2925 22.096 25.4339 22.128C25.5752 22.16 25.6979 22.208 25.8019 22.272C25.9059 22.3333 25.9872 22.408 26.0459 22.496C26.1072 22.584 26.1379 22.684 26.1379 22.796V22.972C26.1379 23.084 26.1072 23.184 26.0459 23.272C25.9872 23.36 25.9059 23.4347 25.8019 23.496C25.6979 23.56 25.5752 23.608 25.4339 23.64C25.2925 23.672 25.1392 23.688 24.9739 23.688ZM24.1699 21.268C24.1565 21.3 24.1325 21.336 24.0979 21.376C24.0632 21.416 24.0045 21.472 23.9219 21.544C23.8285 21.624 23.7312 21.7053 23.6299 21.788C23.5312 21.868 23.4259 21.9507 23.3139 22.036L23.0139 21.664C23.1312 21.5787 23.2379 21.4973 23.3339 21.42C23.4299 21.3427 23.5259 21.26 23.6219 21.172C23.7045 21.0973 23.7699 21.0107 23.8179 20.912C23.8685 20.8133 23.8939 20.6987 23.8939 20.568V20.008H24.4059V20.552C24.4059 20.6187 24.4085 20.6787 24.4139 20.732C24.4219 20.7827 24.4352 20.8307 24.4539 20.876C24.4752 20.9213 24.5032 20.9653 24.5379 21.008C24.5725 21.048 24.6165 21.0893 24.6699 21.132C24.7472 21.196 24.8365 21.2653 24.9379 21.34C25.0419 21.4147 25.1445 21.4867 25.2459 21.556L24.9659 21.908C24.8725 21.844 24.7832 21.7813 24.6979 21.72C24.6125 21.656 24.5325 21.5947 24.4579 21.536C24.3885 21.4827 24.3259 21.4333 24.2699 21.388C24.2165 21.34 24.1845 21.3 24.1739 21.268H24.1699ZM25.6219 21.036H24.9659V20.608H25.6219V19.856H26.1259V22.06H25.6219V21.036ZM24.9739 22.492C24.8859 22.492 24.8019 22.5013 24.7219 22.52C24.6419 22.5387 24.5712 22.564 24.5099 22.596C24.4485 22.6253 24.3992 22.6613 24.3619 22.704C24.3245 22.744 24.3059 22.7867 24.3059 22.832V22.936C24.3059 22.9813 24.3245 23.024 24.3619 23.064C24.3992 23.1067 24.4485 23.1427 24.5099 23.172C24.5712 23.204 24.6419 23.2293 24.7219 23.248C24.8019 23.2667 24.8859 23.276 24.9739 23.276C25.0619 23.276 25.1459 23.2667 25.2259 23.248C25.3059 23.2293 25.3765 23.204 25.4379 23.172C25.4992 23.1427 25.5485 23.1067 25.5859 23.064C25.6232 23.024 25.6419 22.9813 25.6419 22.936V22.832C25.6419 22.7867 25.6232 22.744 25.5859 22.704C25.5485 22.6613 25.4992 22.6253 25.4379 22.596C25.3765 22.564 25.3059 22.5387 25.2259 22.52C25.1459 22.5013 25.0619 22.492 24.9739 22.492Z" fill="#FFFBFB"/>
</g>
<path d="M18.6393 0.000289405L16.5234 2.11523L19.8851 5.47833L22.001 3.36339L18.6393 0.000289405Z" fill="white"/>
<path d="M15.5562 3.09473L4.91267 13.7383H4.88427L0 18.6216V18.6491V21.6903H3.67923L7.95296 17.4166V17.4042L18.9096 6.44763L15.5562 3.09473Z" fill="white"/>
<defs>
<filter id="filter0_d" x="11.1152" y="19.7441" width="20.0219" height="9.944" filterUnits="userSpaceOnUse" color-interpolation-filters="sRGB">
<feFlood flood-opacity="0" result="BackgroundImageFix"/>
<feColorMatrix in="SourceAlpha" type="matrix" values="0 0 0 0 0 0 0 0 0 0 0 0 0 0 0 0 0 0 127 0"/>
<feOffset dx="2" dy="3"/>
<feGaussianBlur stdDeviation="1.5"/>
<feColorMatrix type="matrix" values="0 0 0 0 0 0 0 0 0 0 0 0 0 0 0 0 0 0 0.15 0"/>
<feBlend mode="normal" in2="BackgroundImageFix" result="effect1_dropShadow"/>
<feBlend mode="normal" in="SourceGraphic" in2="effect1_dropShadow" result="shape"/>
</filter>
</defs>
</svg>
