<svg width="20" height="21" viewBox="0 0 20 21" fill="none" xmlns="http://www.w3.org/2000/svg">
<path fill-rule="evenodd" clip-rule="evenodd" d="M17.3849 8.90239C17.3849 13.2668 13.8468 16.8048 9.48247 16.8048C5.1181 16.8048 1.58008 13.2668 1.58008 8.90239C1.58008 4.53802 5.1181 1 9.48247 1C13.8468 1 17.3849 4.53802 17.3849 8.90239ZM14.802 16.0413C13.3179 17.149 11.4768 17.8048 9.48247 17.8048C4.56582 17.8048 0.580078 13.8191 0.580078 8.90239C0.580078 3.98574 4.56582 0 9.48247 0C14.3991 0 18.3849 3.98574 18.3849 8.90239C18.3849 11.4638 17.3031 13.7725 15.5716 15.3967L19.8517 19.6768C20.047 19.8721 20.047 20.1887 19.8517 20.3839C19.6564 20.5792 19.3399 20.5792 19.1446 20.3839L14.802 16.0413Z" fill="black"/>
</svg>
