<svg width="20" height="19" viewBox="0 0 20 19" fill="none" xmlns="http://www.w3.org/2000/svg">
<path d="M15.1926 19C14.9531 19 14.7189 18.9471 14.5018 18.8453C14.4644 18.8304 14.428 18.8125 14.3906 18.7913L9.99868 16.3087L5.60678 18.7923C5.56933 18.8136 5.53194 18.8315 5.49344 18.8485C4.97157 19.09 4.33316 19.0328 3.86693 18.697C3.36541 18.3367 3.11728 17.7084 3.2403 17.0982L4.26368 12.1797C3.86372 11.8194 3.23493 11.2525 2.55055 10.6359L0.524079 8.80817C0.495206 8.78169 0.46528 8.75199 0.440668 8.72125C0.0396544 8.30166 -0.103608 7.69349 0.077099 7.1404C0.262067 6.58518 0.740125 6.17408 1.31758 6.07132C1.35393 6.06288 1.38922 6.05647 1.42666 6.05225L6.45377 5.50021L8.53478 0.933488C8.55298 0.893208 8.57328 0.854021 8.59894 0.81692C8.8791 0.315732 9.41591 0 9.99873 0C10.5794 0 11.1152 0.315732 11.3986 0.815827C11.421 0.853972 11.4424 0.893208 11.4627 0.934531L13.5458 5.50333L18.573 6.05538C18.6093 6.05856 18.6457 6.06492 18.6842 6.07336C19.2605 6.1793 19.7385 6.58831 19.9224 7.14562C20.1042 7.69766 19.9599 8.30901 19.5588 8.7286C19.5331 8.75616 19.5043 8.78581 19.4754 8.81124L15.7348 12.1849L16.7582 17.0927C16.879 17.7147 16.6319 18.3409 16.1272 18.7022C15.8577 18.8951 15.5327 19 15.1926 19Z" fill="#D8D8D8"/>
</svg>
