<svg width="12" height="12" viewBox="0 0 12 12" fill="none" xmlns="http://www.w3.org/2000/svg">
<path d="M11.9406 3.92667L11.3104 1.01333C11.1784 0.413333 10.7102 0 10.1641 0H1.82737C1.2872 0 0.813043 0.42 0.687002 1.01333L0.0567996 3.92667C-0.0872468 4.60667 0.0447958 5.3 0.428919 5.84667C0.476935 5.92 0.542956 5.97333 0.596973 6.04V10.6667C0.596973 11.4 1.13715 12 1.79736 12H10.2001C10.8603 12 11.4005 11.4 11.4005 10.6667V6.04C11.4545 5.98 11.5205 5.92 11.5685 5.85333C11.9526 5.30667 12.0907 4.60667 11.9406 3.92667ZM10.146 1.32667L10.7762 4.24C10.8363 4.52 10.7823 4.8 10.6262 5.02C10.5422 5.14 10.3621 5.33333 10.062 5.33333C9.6959 5.33333 9.3778 5.00667 9.33578 4.57333L8.98767 1.33333L10.146 1.32667ZM6.59891 1.33333H7.77528L8.09939 4.34667C8.1294 4.60667 8.05737 4.86667 7.90132 5.06C7.76928 5.23333 7.57722 5.33333 7.33114 5.33333C6.92901 5.33333 6.59891 4.94 6.59891 4.46V1.33333ZM3.89203 4.34667L4.22214 1.33333H5.39852V4.46C5.39852 4.94 5.06841 5.33333 4.62427 5.33333C4.4202 5.33333 4.23414 5.23333 4.0901 5.06C3.94005 4.86667 3.86803 4.60667 3.89203 4.34667ZM1.22117 4.24L1.82737 1.33333H3.00975L2.66164 4.57333C2.61362 5.00667 2.30152 5.33333 1.9354 5.33333C1.64131 5.33333 1.45525 5.14 1.37722 5.02C1.21517 4.80667 1.16115 4.52 1.22117 4.24ZM1.79736 10.6667V6.64667C1.84538 6.65333 1.88739 6.66667 1.9354 6.66667C2.45757 6.66667 2.93172 6.42667 3.27984 6.03333C3.63995 6.43333 4.12011 6.66667 4.66628 6.66667C5.18845 6.66667 5.6566 6.42667 6.00471 6.04667C6.35883 6.42667 6.83898 6.66667 7.37916 6.66667C7.88332 6.66667 8.36347 6.43333 8.72359 6.03333C9.0717 6.42667 9.54585 6.66667 10.068 6.66667C10.116 6.66667 10.1581 6.65333 10.2061 6.64667V10.6667H1.79736Z" fill="black"/>
</svg>
