<svg width="52" height="62" viewBox="0 0 52 62" fill="none" xmlns="http://www.w3.org/2000/svg">
<rect x="0.5" y="0.5" width="51" height="61" rx="4.5" fill="white" stroke="#BCBCBC"/>
<path d="M15.219 47.85C15.1957 47.9107 15.1397 47.9947 15.051 48.102C14.9623 48.2047 14.862 48.3027 14.75 48.396C14.6007 48.5267 14.4327 48.6643 14.246 48.809C14.064 48.9537 13.875 49.0937 13.679 49.229L13.273 48.732C13.497 48.5733 13.707 48.4193 13.903 48.27C14.099 48.116 14.26 47.9783 14.386 47.857C14.47 47.773 14.5423 47.6913 14.603 47.612C14.6637 47.5327 14.7103 47.451 14.743 47.367C14.7803 47.2783 14.806 47.185 14.82 47.087C14.8387 46.9843 14.848 46.87 14.848 46.744V46.499H13.49V45.904H16.829V46.499H15.548V46.716C15.548 46.828 15.5527 46.9283 15.562 47.017C15.5713 47.1057 15.5877 47.1873 15.611 47.262C15.639 47.3367 15.6763 47.409 15.723 47.479C15.7697 47.5443 15.8327 47.612 15.912 47.682C16.0753 47.8313 16.248 47.976 16.43 48.116C16.612 48.2513 16.808 48.3867 17.018 48.522L16.626 49.026C16.444 48.9 16.2737 48.7763 16.115 48.655C15.9563 48.5337 15.793 48.403 15.625 48.263C15.5177 48.1743 15.429 48.0973 15.359 48.032C15.2937 47.962 15.2493 47.9013 15.226 47.85H15.219ZM14.239 49.614H18.32V52.043H17.627V50.209H14.239V49.614ZM19.237 47.668H18.32V49.278H17.634V45.526H18.32V47.066H19.237V47.668ZM24.2991 48.83V47.521H22.9901C22.9714 47.6703 22.9224 47.8173 22.8431 47.962C22.7684 48.1067 22.6634 48.235 22.5281 48.347C22.3974 48.459 22.2364 48.55 22.0451 48.62C21.8584 48.6853 21.6438 48.718 21.4011 48.718C21.1351 48.718 20.9018 48.6783 20.7011 48.599C20.5004 48.5197 20.3324 48.417 20.1971 48.291C20.0664 48.1603 19.9661 48.0157 19.8961 47.857C19.8308 47.6937 19.7981 47.5303 19.7981 47.367V47.101C19.7981 46.9377 19.8308 46.7767 19.8961 46.618C19.9661 46.4547 20.0664 46.31 20.1971 46.184C20.3324 46.0533 20.5004 45.9483 20.7011 45.869C20.9018 45.7897 21.1351 45.75 21.4011 45.75C21.6438 45.75 21.8584 45.785 22.0451 45.855C22.2318 45.9203 22.3904 46.009 22.5211 46.121C22.6564 46.2283 22.7614 46.352 22.8361 46.492C22.9154 46.632 22.9668 46.7767 22.9901 46.926H24.2991V45.526H24.9851V48.83H24.2991ZM24.9851 49.145V51.98H20.9601V49.145H21.6461V49.964H24.2991V49.145H24.9851ZM21.4011 48.123C21.5504 48.123 21.6834 48.0997 21.8001 48.053C21.9168 48.0063 22.0148 47.9457 22.0941 47.871C22.1734 47.7963 22.2341 47.7123 22.2761 47.619C22.3181 47.5257 22.3391 47.43 22.3391 47.332V47.136C22.3391 47.038 22.3181 46.9423 22.2761 46.849C22.2341 46.7557 22.1734 46.674 22.0941 46.604C22.0148 46.5293 21.9168 46.4687 21.8001 46.422C21.6834 46.3753 21.5504 46.352 21.4011 46.352C21.2518 46.352 21.1188 46.3753 21.0021 46.422C20.8854 46.4687 20.7874 46.5293 20.7081 46.604C20.6288 46.674 20.5681 46.7557 20.5261 46.849C20.4841 46.9423 20.4631 47.038 20.4631 47.136V47.332C20.4631 47.43 20.4841 47.5257 20.5261 47.619C20.5681 47.7123 20.6288 47.7963 20.7081 47.871C20.7874 47.9457 20.8854 48.0063 21.0021 48.053C21.1188 48.0997 21.2518 48.123 21.4011 48.123ZM24.2991 51.392V50.545H21.6461V51.392H24.2991ZM28.8362 50.251H26.2322V46.142H28.8362V47.808H29.6272V45.659H30.3062V51.665H29.6272V48.41H28.8362V50.251ZM31.5872 51.98H30.9082V45.526H31.5872V51.98ZM26.9112 49.663H28.1572V46.73H26.9112V49.663ZM36.0753 51.966V49.719H34.5213V51.966H33.8283V49.719H32.3373V49.131H38.2593V49.719H36.7683V51.966H36.0753ZM33.8563 45.743V47.696H37.4823V48.291H33.1633V45.743H33.8563Z" fill="#2D2D2D"/>
<path d="M36.1961 31.57L34.4983 33.268L33.1913 33.0702C33.1913 33.0702 32.9945 31.7468 32.9896 31.7523L34.684 30.0585C34.3026 29.8862 33.8814 29.7881 33.4367 29.7881C31.7628 29.7881 30.406 31.1449 30.406 32.8178C30.406 33.2635 30.5046 33.6842 30.6769 34.0651L30.0938 34.6487C30.2451 34.9365 30.7331 35.7455 31.601 36.1663L32.1894 35.5777C32.5703 35.75 32.9911 35.848 33.4367 35.848C35.1097 35.848 36.4665 34.4913 36.4665 32.8178C36.4665 32.3727 36.3684 31.9505 36.1961 31.57Z" fill="#241F20"/>
<path d="M28.4409 17.582H18.0918V19.4637H28.4409V17.582Z" fill="#241F20"/>
<path d="M28.3959 22.0957H18.1348V23.9614H28.3959V22.0957Z" fill="#241F20"/>
<path d="M18.1523 32.4781H24.9892C25.0684 31.8679 25.221 31.2816 25.4406 30.728H18.1523V32.4781Z" fill="#241F20"/>
<path d="M28.3791 26.9222V26.4678H18.1543V28.3269H26.9751C27.3818 27.8002 27.8529 27.329 28.3791 26.9222Z" fill="#241F20"/>
<path d="M26.2807 37H15V14H32V25.2553" stroke="#231815" stroke-width="1.5" stroke-miterlimit="10" stroke-linecap="round" stroke-linejoin="round"/>
<path d="M33 39C36.3137 39 39 36.3137 39 33C39 29.6863 36.3137 27 33 27C29.6863 27 27 29.6863 27 33C27 36.3137 29.6863 39 33 39Z" stroke="#231815" stroke-width="1.5" stroke-miterlimit="10"/>
</svg>
