<svg width="21" height="18" viewBox="0 0 21 18" fill="none" xmlns="http://www.w3.org/2000/svg">
<path fill-rule="evenodd" clip-rule="evenodd" d="M11.0151 1.6603C12.1155 0.593584 13.6012 0 15.1436 0C16.6859 0 18.1715 0.593501 19.2719 1.66009C20.3739 2.72745 21 4.18311 21 5.70892C21 7.23467 20.374 8.69034 19.272 9.7577C19.2719 9.75773 19.2719 9.75777 19.2719 9.75781L10.9642 17.8076C10.6994 18.0641 10.2838 18.0641 10.019 17.8076L2.7074 10.723L1.71123 9.75774L1.70902 9.75558C-0.577011 7.52059 -0.568466 3.90072 1.72753 1.67599C4.00422 -0.529986 7.67918 -0.537837 9.96578 1.65805L9.968 1.66019L10.4916 2.16753L11.0151 1.6603ZM15.1436 1.39768C13.9434 1.39768 12.799 1.86013 11.9605 2.67294L11.9604 2.67306L10.9642 3.63831C10.6994 3.89485 10.2837 3.89484 10.019 3.6383L9.02505 2.6752C9.02469 2.67485 9.02433 2.67451 9.02396 2.67416C7.26713 0.988153 4.42104 0.994824 2.67271 2.68885C0.943696 4.3642 0.937262 7.06297 2.65755 8.74598C2.65791 8.74634 2.65827 8.74669 2.65863 8.74704L10.4916 16.3368L18.3268 8.74484L18.3269 8.74473C19.1646 7.93342 19.6284 6.84055 19.6284 5.70892C19.6284 4.5773 19.1646 3.48447 18.3269 2.67316L18.3267 2.67294C17.4882 1.86013 16.3438 1.39768 15.1436 1.39768Z" fill="#040000"/>
</svg>
