<svg width="19" height="32" viewBox="0 0 19 32" fill="none" xmlns="http://www.w3.org/2000/svg">
<path fill-rule="evenodd" clip-rule="evenodd" d="M9.14898 0.143949C9.34365 -0.0479831 9.65638 -0.0479831 9.85105 0.143949L18.8511 9.01725C18.9955 9.15968 19.0396 9.37529 18.9626 9.563C18.8857 9.75071 18.7029 9.8733 18.5 9.8733H16V18.5001C16 18.7762 15.7762 19.0001 15.5 19.0001H3.46641C3.19027 19.0001 2.96641 18.7762 2.96641 18.5001V9.8733H0.500015C0.297139 9.8733 0.114373 9.75071 0.0374004 9.563C-0.0395723 9.37529 0.00450855 9.15968 0.148977 9.01725L9.14898 0.143949ZM9.50001 1.20215L1.71933 8.8733H3.46641C3.74256 8.8733 3.96641 9.09716 3.96641 9.3733V18.0001H7.00001V12.4156C7.00001 12.1394 7.22387 11.9156 7.50001 11.9156H11.5C11.7762 11.9156 12 12.1394 12 12.4156V18.0001H15V9.3733C15 9.09716 15.2239 8.8733 15.5 8.8733H17.2807L9.50001 1.20215ZM11 18.0001V12.9156H8.00001V18.0001H11Z" fill="#CDCDCD"/>
<path d="M13.0824 28.616C13.0824 28.6427 13.069 28.6693 13.0424 28.696C13.0157 28.7227 12.989 28.736 12.9624 28.736H6.00238C5.97038 28.736 5.94371 28.7227 5.92238 28.696C5.90105 28.6693 5.89038 28.6427 5.89038 28.616V28.144C5.89038 28.112 5.90105 28.0827 5.92238 28.056C5.94371 28.0293 5.97038 28.016 6.00238 28.016H9.01038V27.632C8.44505 27.5787 8.02638 27.4533 7.75438 27.256C7.48238 27.0587 7.34638 26.8373 7.34638 26.592C7.34638 26.4533 7.38905 26.32 7.47438 26.192C7.56505 26.064 7.69838 25.952 7.87438 25.856C8.05038 25.7547 8.27171 25.6747 8.53838 25.616C8.80505 25.5573 9.11971 25.528 9.48238 25.528C9.84505 25.528 10.1597 25.5573 10.4264 25.616C10.6984 25.6747 10.9224 25.7547 11.0984 25.856C11.2744 25.952 11.405 26.064 11.4904 26.192C11.581 26.32 11.6264 26.4533 11.6264 26.592C11.6264 26.8427 11.4877 27.0667 11.2104 27.264C10.933 27.456 10.5064 27.5787 9.93038 27.632V28.016H12.9304C12.957 28.016 12.989 28.032 13.0264 28.064C13.0637 28.0907 13.0824 28.1173 13.0824 28.144V28.616ZM11.9464 30.624C11.9464 30.8267 11.8957 30.9707 11.7944 31.056C11.693 31.1413 11.541 31.184 11.3384 31.184H7.62638C7.38638 31.184 7.22371 31.1413 7.13838 31.056C7.05838 30.976 7.01838 30.832 7.01838 30.624V29.688C7.01838 29.4853 7.06905 29.3413 7.17038 29.256C7.27171 29.1653 7.42371 29.12 7.62638 29.12H11.3384C11.5784 29.12 11.7384 29.1627 11.8184 29.248C11.9037 29.328 11.9464 29.4747 11.9464 29.688V30.624ZM12.3704 25.184C12.3704 25.216 12.357 25.2453 12.3304 25.272C12.309 25.2933 12.2824 25.304 12.2504 25.304H6.72238C6.69571 25.304 6.66905 25.2907 6.64238 25.264C6.61571 25.2373 6.60238 25.2053 6.60238 25.168V24.744C6.60238 24.7173 6.61571 24.6907 6.64238 24.664C6.67438 24.6373 6.70371 24.624 6.73038 24.624H12.2504C12.2824 24.624 12.309 24.6373 12.3304 24.664C12.357 24.6853 12.3704 24.712 12.3704 24.744V25.184ZM11.0424 29.944C11.0424 29.864 11.0077 29.824 10.9384 29.824H8.02638C7.98371 29.824 7.95438 29.8347 7.93838 29.856C7.92771 29.872 7.92238 29.9013 7.92238 29.944V30.376C7.92238 30.424 7.92771 30.4533 7.93838 30.464C7.95438 30.48 7.98371 30.488 8.02638 30.488H10.9384C10.981 30.488 11.0077 30.48 11.0184 30.464C11.0344 30.4533 11.0424 30.424 11.0424 30.376V29.944ZM9.48238 26.144C9.07705 26.144 8.76505 26.1867 8.54638 26.272C8.33305 26.3573 8.22638 26.464 8.22638 26.592C8.22638 26.7147 8.33305 26.8187 8.54638 26.904C8.76505 26.9893 9.07705 27.032 9.48238 27.032C9.89305 27.032 10.205 26.9893 10.4184 26.904C10.637 26.8187 10.7464 26.7147 10.7464 26.592C10.7464 26.464 10.637 26.3573 10.4184 26.272C10.205 26.1867 9.89305 26.144 9.48238 26.144ZM10.7784 24.224C10.7784 24.256 10.765 24.2853 10.7384 24.312C10.717 24.3387 10.6877 24.352 10.6504 24.352H8.32238C8.30105 24.352 8.27438 24.3413 8.24238 24.32C8.21571 24.2987 8.20238 24.2693 8.20238 24.232V23.776C8.20238 23.7387 8.21571 23.7093 8.24238 23.688C8.27438 23.6667 8.30105 23.656 8.32238 23.656H10.6504C10.6824 23.656 10.7117 23.6693 10.7384 23.696C10.765 23.7227 10.7784 23.752 10.7784 23.784V24.224Z" fill="#CDCDCD"/>
</svg>
