<svg width="22" height="24" viewBox="0 0 22 24" fill="none" xmlns="http://www.w3.org/2000/svg">
<path d="M5.51484 15.776C5.51484 15.7067 5.54951 15.672 5.61884 15.672H6.33084C6.40018 15.672 6.43484 15.7067 6.43484 15.776V23.16C6.43484 23.2293 6.40018 23.264 6.33084 23.264H5.61884C5.54951 23.264 5.51484 23.2293 5.51484 23.16V18.92H3.61884C3.59751 18.92 3.57084 18.9093 3.53884 18.888C3.51218 18.8667 3.49884 18.8347 3.49884 18.792V18.272C3.49884 18.2347 3.51218 18.2053 3.53884 18.184C3.57084 18.1627 3.59751 18.152 3.61884 18.152H5.51484V15.776ZM4.78684 20.632C4.79751 20.6907 4.78951 20.7307 4.76284 20.752C4.74151 20.768 4.71751 20.7813 4.69084 20.792C4.47751 20.856 4.21084 20.912 3.89084 20.96C3.57618 21.0027 3.24818 21.0373 2.90684 21.064C2.57084 21.0907 2.24018 21.1093 1.91484 21.12C1.59484 21.1253 1.32551 21.12 1.10684 21.104C0.90951 21.0933 0.762844 21.0507 0.666844 20.976C0.576177 20.896 0.530844 20.76 0.530844 20.568V16.776C0.530844 16.5893 0.568177 16.4587 0.642844 16.384C0.722844 16.3093 0.864177 16.272 1.06684 16.272H3.89084C3.96551 16.272 4.00284 16.3067 4.00284 16.376V16.936C4.00284 17.0053 3.96551 17.04 3.89084 17.04H1.59484C1.49884 17.04 1.45084 17.0853 1.45084 17.176V20.096C1.45084 20.1813 1.46418 20.2373 1.49084 20.264C1.52284 20.2853 1.58951 20.3013 1.69084 20.312C1.85618 20.3227 2.05351 20.3253 2.28284 20.32C2.51218 20.3147 2.75484 20.3013 3.01084 20.28C3.27218 20.2587 3.53618 20.232 3.80284 20.2C4.06951 20.168 4.32284 20.1307 4.56284 20.088C4.64284 20.0613 4.69084 20.0907 4.70684 20.176L4.78684 20.632ZM14.5903 21.848C14.5903 21.8747 14.5769 21.9013 14.5503 21.928C14.5236 21.9547 14.4969 21.968 14.4703 21.968H7.50228C7.47028 21.968 7.44361 21.9547 7.42228 21.928C7.40095 21.9013 7.39028 21.8747 7.39028 21.848V21.328C7.39028 21.296 7.40095 21.2667 7.42228 21.24C7.44361 21.2133 7.47028 21.2 7.50228 21.2H10.5263V19.736H9.06228C8.82761 19.736 8.66761 19.696 8.58228 19.616C8.49695 19.536 8.45428 19.3867 8.45428 19.168V16.112C8.45428 16.0853 8.46495 16.064 8.48628 16.048C8.50761 16.0267 8.53161 16.016 8.55828 16.016H9.26228C9.28895 16.016 9.31295 16.0267 9.33428 16.048C9.36095 16.064 9.37428 16.0853 9.37428 16.112V17.24H12.5903V16.104C12.5903 16.0773 12.6009 16.0533 12.6223 16.032C12.6436 16.0107 12.6676 16 12.6943 16H13.4063C13.4329 16 13.4569 16.0107 13.4783 16.032C13.4996 16.0533 13.5103 16.0773 13.5103 16.104V19.2C13.5103 19.376 13.4676 19.5093 13.3823 19.6C13.2969 19.6907 13.1396 19.736 12.9103 19.736H11.4463V21.2H14.4703C14.4969 21.2 14.5236 21.216 14.5503 21.248C14.5769 21.2747 14.5903 21.3013 14.5903 21.328V21.848ZM12.5903 17.984H9.37428V18.848C9.37428 18.9387 9.42228 18.984 9.51828 18.984H12.4463C12.5423 18.984 12.5903 18.9387 12.5903 18.848V17.984ZM21.3537 23.16C21.3537 23.2293 21.3191 23.264 21.2497 23.264H20.5377C20.4684 23.264 20.4337 23.2293 20.4337 23.16V15.776C20.4337 15.7067 20.4684 15.672 20.5377 15.672H21.2497C21.3191 15.672 21.3537 15.7067 21.3537 15.776V23.16ZM19.1937 16.872C19.1511 17.3893 19.0417 17.8773 18.8657 18.336C18.6951 18.7947 18.4657 19.2213 18.1777 19.616C17.8951 20.0107 17.5591 20.376 17.1697 20.712C16.7804 21.048 16.3511 21.3547 15.8817 21.632C15.8391 21.6587 15.7911 21.6693 15.7377 21.664C15.6897 21.6533 15.6524 21.6267 15.6257 21.584L15.3537 21.16C15.3271 21.1173 15.3191 21.0773 15.3297 21.04C15.3404 20.9973 15.3644 20.9653 15.4017 20.944C16.1964 20.4747 16.8311 19.9333 17.3057 19.32C17.7857 18.7067 18.0977 18.0347 18.2417 17.304C18.2631 17.1973 18.2577 17.128 18.2257 17.096C18.1937 17.0587 18.1271 17.04 18.0257 17.04H15.7697C15.6951 17.04 15.6577 17.0027 15.6577 16.928V16.368C15.6577 16.304 15.6951 16.272 15.7697 16.272H18.6337C18.8737 16.272 19.0311 16.3227 19.1057 16.424C19.1804 16.52 19.2097 16.6693 19.1937 16.872Z" fill="#CDCDCD"/>
<path d="M5 2C5 3.10457 4.10457 4 3 4C1.89543 4 1 3.10457 1 2C1 0.89543 1.89543 0 3 0C4.10457 0 5 0.89543 5 2Z" fill="#CDCDCD"/>
<path d="M13 2C13 3.10457 12.1046 4 11 4C9.89543 4 9 3.10457 9 2C9 0.89543 9.89543 0 11 0C12.1046 0 13 0.89543 13 2Z" fill="#CDCDCD"/>
<path d="M21 2C21 3.10457 20.1046 4 19 4C17.8954 4 17 3.10457 17 2C17 0.89543 17.8954 0 19 0C20.1046 0 21 0.89543 21 2Z" fill="#CDCDCD"/>
</svg>
