<svg width="29" height="30" viewBox="0 0 29 30" fill="none" xmlns="http://www.w3.org/2000/svg">
<path d="M6.79115 29.3865C6.79115 29.5737 6.74758 29.7068 6.66044 29.7856C6.5733 29.8645 6.43233 29.9039 6.23755 29.9039H2.77758C2.54178 29.9039 2.38288 29.8645 2.30087 29.7856C2.22398 29.7068 2.18553 29.5713 2.18553 29.3791V27.9229C2.18553 27.7357 2.22911 27.6026 2.31625 27.5238C2.40339 27.44 2.54435 27.3981 2.73913 27.3981H6.19911C6.4349 27.3981 6.59124 27.4375 6.66812 27.5164C6.75014 27.5952 6.79115 27.7332 6.79115 27.9303V29.3865ZM4.87663 24.0866C4.84587 24.2246 4.79974 24.3724 4.73823 24.5301C4.68184 24.6829 4.61008 24.8405 4.52294 25.0032C4.57933 25.082 4.64852 25.1633 4.73054 25.2471C4.81255 25.3309 4.89969 25.4122 4.99196 25.491C5.08423 25.5699 5.17649 25.6463 5.26876 25.7202C5.36102 25.7892 5.4456 25.8483 5.52249 25.8976C5.54812 25.9124 5.5635 25.937 5.56862 25.9715C5.57375 26.0011 5.5635 26.0282 5.53787 26.0528L5.26876 26.3928C5.25851 26.4076 5.23544 26.4224 5.19956 26.4372C5.16368 26.452 5.11754 26.4446 5.06116 26.415C4.99965 26.3805 4.92789 26.3337 4.84587 26.2746C4.76898 26.2154 4.68697 26.1514 4.59983 26.0824C4.51781 26.0084 4.4358 25.9321 4.35379 25.8532C4.27177 25.7744 4.19745 25.698 4.13081 25.6241C3.9514 25.8655 3.75149 26.0971 3.53108 26.3189C3.31579 26.5357 3.08257 26.7304 2.8314 26.9029C2.74938 26.9571 2.68531 26.9595 2.63918 26.9102L2.31625 26.5776C2.29062 26.553 2.2778 26.5259 2.2778 26.4963C2.2778 26.4618 2.29574 26.4322 2.33162 26.4076C2.42389 26.3386 2.51359 26.2672 2.60073 26.1932C2.68787 26.1193 2.77501 26.0429 2.86215 25.9641C2.74426 25.8754 2.62636 25.7793 2.50847 25.6758C2.39057 25.5674 2.28549 25.4565 2.19322 25.3432C2.05482 25.5304 1.89849 25.7103 1.72421 25.8828C1.55505 26.0503 1.36539 26.2056 1.15523 26.3485C1.11422 26.3731 1.07834 26.3904 1.04759 26.4002C1.02196 26.4051 0.996329 26.3953 0.970699 26.3706L0.624702 26.0232C0.604198 26.0035 0.59651 25.9764 0.601635 25.9419C0.606761 25.9074 0.627265 25.8779 0.663146 25.8532C1.01683 25.6019 1.30901 25.3235 1.53967 25.018C1.77546 24.7075 1.92924 24.4266 2.001 24.1753C2.02663 24.1014 2.03432 24.0521 2.02407 24.0275C2.01382 24.0028 1.96512 23.9905 1.87798 23.9905H1.1091C1.07322 23.9905 1.04759 23.9782 1.03221 23.9535C1.01683 23.9289 1.00914 23.9018 1.00914 23.8722V23.4583C1.00914 23.3844 1.04502 23.3474 1.11679 23.3474H2.23167C2.4367 23.3474 2.59561 23.3844 2.70838 23.4583C2.82115 23.5273 2.87753 23.6258 2.87753 23.754C2.87753 23.8131 2.8724 23.8772 2.86215 23.9461C2.8519 24.0151 2.83909 24.0767 2.82371 24.1309C2.79808 24.2295 2.7622 24.3305 2.71606 24.434C2.67506 24.5375 2.62636 24.641 2.56998 24.7445C2.66737 24.8775 2.7827 25.0081 2.91597 25.1362C3.05437 25.2594 3.19021 25.3678 3.32348 25.4615C3.50289 25.2397 3.65154 25.0204 3.76943 24.8036C3.89246 24.5818 3.98216 24.3675 4.03854 24.1605C4.05392 24.0915 4.05905 24.0472 4.05392 24.0275C4.0488 24.0028 4.00523 23.9905 3.92321 23.9905H3.18508C3.1492 23.9905 3.12101 23.9782 3.10051 23.9535C3.08513 23.9289 3.07744 23.9018 3.07744 23.8722V23.4583C3.07744 23.3844 3.11588 23.3474 3.19277 23.3474H4.31534C4.52038 23.3474 4.67415 23.3844 4.77667 23.4583C4.87919 23.5273 4.93045 23.6258 4.93045 23.754C4.93045 23.8082 4.92276 23.8624 4.90738 23.9166C4.89713 23.9708 4.88688 24.0275 4.87663 24.0866ZM6.79883 26.925C6.79883 26.9497 6.78858 26.9743 6.76808 26.9989C6.74758 27.0187 6.72451 27.0285 6.69888 27.0285H6.05302C6.02739 27.0285 6.00432 27.0187 5.98382 26.9989C5.96331 26.9743 5.95306 26.9497 5.95306 26.925V23.0961C5.95306 23.032 5.98638 23 6.05302 23H6.69888C6.76552 23 6.79883 23.032 6.79883 23.0961V26.925ZM5.91462 28.1742C5.91462 28.1299 5.90693 28.1028 5.89155 28.0929C5.87618 28.0781 5.84798 28.0707 5.80698 28.0707H3.16971C3.12357 28.0707 3.09282 28.0757 3.07744 28.0855C3.06719 28.0954 3.06206 28.1225 3.06206 28.1668V29.1278C3.06206 29.1721 3.06719 29.1992 3.07744 29.2091C3.09282 29.2189 3.12357 29.2239 3.16971 29.2239H5.80698C5.85311 29.2239 5.8813 29.2189 5.89155 29.2091C5.90693 29.1992 5.91462 29.1721 5.91462 29.1278V28.1742Z" fill="#CDCDCD"/>
<path d="M10.1852 25.735C9.94431 25.735 9.7444 25.799 9.5855 25.9271C9.42659 26.0553 9.34714 26.2105 9.34714 26.3928C9.34714 26.5801 9.42659 26.7402 9.5855 26.8733C9.7444 27.0063 9.94431 27.0729 10.1852 27.0729C10.4313 27.0729 10.6312 27.0063 10.785 26.8733C10.9439 26.7402 11.0233 26.5801 11.0233 26.3928C11.0233 26.2105 10.9439 26.0553 10.785 25.9271C10.6312 25.799 10.4313 25.735 10.1852 25.735ZM10.1852 25.0771C10.4159 25.0771 10.6337 25.1116 10.8388 25.1806C11.0438 25.2496 11.2207 25.3432 11.3693 25.4615C11.5231 25.5797 11.6435 25.7202 11.7307 25.8828C11.8178 26.0405 11.8614 26.2105 11.8614 26.3928C11.8614 26.5801 11.8178 26.755 11.7307 26.9176C11.6435 27.0753 11.5231 27.2133 11.3693 27.3316C11.2207 27.4498 11.0438 27.5435 10.8388 27.6125C10.6337 27.6814 10.4133 27.7159 10.1775 27.7159C9.94687 27.7159 9.73159 27.6814 9.53168 27.6125C9.33177 27.5435 9.15492 27.4498 9.00115 27.3316C8.85249 27.2133 8.7346 27.0753 8.64746 26.9176C8.56032 26.755 8.51675 26.5801 8.51675 26.3928C8.51675 26.2105 8.56032 26.0405 8.64746 25.8828C8.7346 25.7202 8.85249 25.5797 9.00115 25.4615C9.15492 25.3432 9.33177 25.2496 9.53168 25.1806C9.73671 25.1116 9.95456 25.0771 10.1852 25.0771ZM12.2766 24.7001C12.2766 24.7346 12.2638 24.7642 12.2381 24.7888C12.2176 24.8085 12.192 24.8184 12.1613 24.8184H8.08617C8.05542 24.8184 8.02723 24.8061 8.0016 24.7814C7.97597 24.7568 7.96315 24.7272 7.96315 24.6927V24.2566C7.96315 24.232 7.97597 24.2073 8.0016 24.1827C8.03235 24.158 8.06311 24.1457 8.09386 24.1457H12.1613C12.192 24.1457 12.2176 24.158 12.2381 24.1827C12.2638 24.2024 12.2766 24.227 12.2766 24.2566V24.7001ZM11.2847 23.7096C11.2847 23.7392 11.2719 23.7663 11.2463 23.7909C11.2258 23.8156 11.195 23.8279 11.154 23.8279H9.14723C9.12673 23.8279 9.1011 23.818 9.07034 23.7983C9.04471 23.7786 9.0319 23.7515 9.0319 23.717V23.2809C9.0319 23.2415 9.04471 23.2119 9.07034 23.1922C9.1011 23.1725 9.12673 23.1626 9.14723 23.1626H11.154C11.1899 23.1626 11.2207 23.1749 11.2463 23.1996C11.2719 23.2242 11.2847 23.2538 11.2847 23.2883V23.7096ZM13.9604 29.8152C13.9604 29.8448 13.9476 29.8669 13.922 29.8817C13.8964 29.8965 13.8707 29.9039 13.8451 29.9039H9.78541C9.55474 29.9039 9.3984 29.8645 9.31639 29.7856C9.23437 29.7068 9.19337 29.5713 9.19337 29.3791V28.2334C9.19337 28.2087 9.20618 28.1841 9.23181 28.1595C9.25744 28.1348 9.28307 28.1225 9.3087 28.1225H9.96225C9.99813 28.1225 10.0263 28.1348 10.0468 28.1595C10.0725 28.1841 10.0853 28.2087 10.0853 28.2334V29.076C10.0853 29.1253 10.0955 29.1573 10.116 29.1721C10.1365 29.1869 10.1724 29.1943 10.2237 29.1943H13.8451C13.8707 29.1943 13.8964 29.2042 13.922 29.2239C13.9476 29.2436 13.9604 29.2658 13.9604 29.2904V29.8152ZM14.8139 26.0971C14.8139 26.1218 14.8011 26.144 14.7755 26.1637C14.755 26.1785 14.7293 26.1858 14.6986 26.1858H13.6606V28.3147C13.6606 28.3787 13.6273 28.4108 13.5606 28.4108H12.8763C12.8097 28.4108 12.7764 28.3787 12.7764 28.3147V23.0961C12.7764 23.032 12.8097 23 12.8763 23H13.5606C13.6273 23 13.6606 23.032 13.6606 23.0961V25.4762H14.6986C14.7293 25.4762 14.755 25.4861 14.7755 25.5058C14.8011 25.5255 14.8139 25.5477 14.8139 25.5723V26.0971Z" fill="#CDCDCD"/>
<path d="M15.8948 26.9768C15.859 26.9916 15.8154 26.9989 15.7641 26.9989C15.718 26.9989 15.6796 26.9718 15.6488 26.9176L15.4104 26.548C15.3848 26.5086 15.3771 26.4692 15.3874 26.4298C15.4028 26.3854 15.4361 26.3509 15.4873 26.3263C16.0563 26.075 16.551 25.767 16.9713 25.4023C17.3967 25.0377 17.712 24.6508 17.917 24.2418C17.9426 24.1975 17.9529 24.158 17.9478 24.1235C17.9426 24.0891 17.8991 24.0718 17.817 24.0718H15.8872C15.8513 24.0718 15.8231 24.0595 15.8026 24.0348C15.7872 24.0102 15.7795 23.9831 15.7795 23.9535V23.4657C15.7795 23.3967 15.818 23.3622 15.8948 23.3622H18.363C18.5885 23.3622 18.7551 23.4016 18.8627 23.4805C18.9755 23.5593 19.0191 23.68 18.9934 23.8427C18.9832 23.8969 18.9704 23.9535 18.955 24.0127C18.9396 24.0718 18.9217 24.1235 18.9012 24.1679C18.8397 24.3256 18.7576 24.4857 18.6551 24.6484C18.5577 24.811 18.445 24.9711 18.3168 25.1288C18.4091 25.2175 18.5116 25.3062 18.6244 25.3949C18.7371 25.4836 18.8525 25.5674 18.9704 25.6463C19.0883 25.7251 19.2062 25.799 19.3241 25.868C19.442 25.9321 19.5522 25.9887 19.6547 26.038C19.7111 26.0627 19.7469 26.0898 19.7623 26.1193C19.7777 26.144 19.7675 26.1809 19.7316 26.2302L19.4778 26.6441C19.4266 26.7328 19.3497 26.7526 19.2472 26.7033C19.1549 26.6589 19.0473 26.6023 18.9242 26.5333C18.8063 26.4593 18.6808 26.3756 18.5475 26.2819C18.4193 26.1883 18.2912 26.0922 18.163 25.9937C18.0349 25.8902 17.917 25.7867 17.8094 25.6832C17.5377 25.9395 17.2378 26.1785 16.9098 26.4002C16.5868 26.622 16.2485 26.8141 15.8948 26.9768ZM21.0387 29.8965C21.0387 29.9212 21.0259 29.9433 21.0002 29.963C20.9797 29.9877 20.9541 30 20.9233 30H20.2698C20.239 30 20.2108 29.9877 20.1852 29.963C20.1596 29.9433 20.1468 29.9212 20.1468 29.8965V28.2555C20.1468 28.2013 20.1365 28.1668 20.116 28.1521C20.0955 28.1373 20.0596 28.1299 20.0084 28.1299H16.533C16.5074 28.1299 16.4818 28.1225 16.4561 28.1077C16.4356 28.088 16.4254 28.0658 16.4254 28.0412V27.5164C16.4254 27.4868 16.4356 27.4646 16.4561 27.4498C16.4818 27.4301 16.5074 27.4203 16.533 27.4203H20.5235C20.7183 27.4203 20.8516 27.4597 20.9233 27.5385C21.0002 27.6174 21.0387 27.7504 21.0387 27.9377V29.8965ZM22.1997 25.3728C22.1997 25.3974 22.1869 25.4196 22.1612 25.4393C22.1407 25.459 22.1151 25.4688 22.0844 25.4688H21.0464V26.9546C21.0464 27.0187 21.013 27.0507 20.9464 27.0507H20.2621C20.1955 27.0507 20.1621 27.0162 20.1621 26.9472V23.0961C20.1621 23.032 20.1955 23 20.2621 23H20.9464C21.013 23 21.0464 23.032 21.0464 23.0961V24.7592H22.0844C22.1151 24.7592 22.1407 24.7691 22.1612 24.7888C22.1869 24.8036 22.1997 24.8258 22.1997 24.8553V25.3728Z" fill="#CDCDCD"/>
<path d="M28.6001 26.6294C28.6001 26.6983 28.5668 26.7328 28.5001 26.7328H27.8158C27.7492 26.7328 27.7159 26.6983 27.7159 26.6294V25.2545H26.5087C26.4626 25.4319 26.3883 25.5994 26.2858 25.7571C26.1832 25.9099 26.0551 26.0429 25.9013 26.1563C25.7475 26.2696 25.5707 26.3608 25.3708 26.4298C25.1709 26.4938 24.953 26.5259 24.7172 26.5259C24.4404 26.5259 24.1893 26.4815 23.9637 26.3928C23.7382 26.2992 23.546 26.176 23.3871 26.0232C23.2282 25.8705 23.1051 25.6955 23.018 25.4984C22.9309 25.2964 22.8873 25.0869 22.8873 24.8701C22.8873 24.6484 22.9309 24.4365 23.018 24.2344C23.1051 24.0324 23.2282 23.855 23.3871 23.7022C23.546 23.5495 23.7382 23.4287 23.9637 23.34C24.1893 23.2464 24.4404 23.1996 24.7172 23.1996C24.9633 23.1996 25.1863 23.2365 25.3862 23.3105C25.5912 23.3794 25.7706 23.4755 25.9244 23.5987C26.0833 23.717 26.2114 23.8599 26.3088 24.0275C26.4113 24.1901 26.4831 24.3625 26.5241 24.5449H27.7159V23.0961C27.7159 23.032 27.7492 23 27.8158 23H28.5001C28.5668 23 28.6001 23.032 28.6001 23.0961V26.6294ZM28.6001 29.4087C28.6001 29.5762 28.5591 29.6994 28.4771 29.7782C28.3951 29.862 28.2438 29.9039 28.0234 29.9039H24.625C24.3994 29.9039 24.2457 29.8669 24.1636 29.793C24.0816 29.7191 24.0406 29.5836 24.0406 29.3865V27.1985C24.0406 27.1739 24.0509 27.1542 24.0714 27.1394C24.0919 27.1197 24.1149 27.1098 24.1406 27.1098H24.8172C24.8428 27.1098 24.8659 27.1197 24.8864 27.1394C24.912 27.1542 24.9248 27.1739 24.9248 27.1985V27.8786H27.7159V27.169C27.7159 27.1443 27.7261 27.1221 27.7466 27.1024C27.7671 27.0827 27.7902 27.0729 27.8158 27.0729H28.5001C28.5258 27.0729 28.5488 27.0827 28.5693 27.1024C28.5898 27.1221 28.6001 27.1443 28.6001 27.169V29.4087ZM25.7091 24.8701C25.7091 24.742 25.686 24.6188 25.6399 24.5005C25.5938 24.3823 25.5271 24.2788 25.44 24.1901C25.3528 24.1014 25.2478 24.0299 25.1247 23.9757C25.0017 23.9215 24.8659 23.8944 24.7172 23.8944C24.5686 23.8944 24.4327 23.9215 24.3097 23.9757C24.1918 24.0299 24.0893 24.1014 24.0022 24.1901C23.915 24.2788 23.8484 24.3823 23.8023 24.5005C23.7561 24.6188 23.7331 24.742 23.7331 24.8701C23.7331 24.9982 23.7561 25.1214 23.8023 25.2397C23.8484 25.353 23.915 25.4541 24.0022 25.5428C24.0893 25.6315 24.1918 25.7029 24.3097 25.7571C24.4327 25.8064 24.5686 25.831 24.7172 25.831C24.8659 25.831 25.0017 25.8064 25.1247 25.7571C25.2478 25.7029 25.3528 25.6315 25.44 25.5428C25.5271 25.4541 25.5938 25.353 25.6399 25.2397C25.686 25.1214 25.7091 24.9982 25.7091 24.8701ZM27.7159 28.566H24.9248V29.0834C24.9248 29.1672 24.971 29.2091 25.0632 29.2091H27.5775C27.6697 29.2091 27.7159 29.1672 27.7159 29.0834V28.566Z" fill="#CDCDCD"/>
<path fill-rule="evenodd" clip-rule="evenodd" d="M15.0151 1.6603C16.1155 0.593584 17.6012 0 19.1436 0C20.6859 0 22.1715 0.593501 23.2719 1.66009C24.3739 2.72745 25 4.18311 25 5.70892C25 7.23467 24.374 8.69034 23.272 9.7577C23.2719 9.75773 23.2719 9.75777 23.2719 9.75781L14.9642 17.8076C14.6994 18.0641 14.2838 18.0641 14.019 17.8076L6.7074 10.723L5.71123 9.75774L5.70902 9.75558C3.42299 7.52059 3.43153 3.90072 5.72753 1.67599C8.00422 -0.529986 11.6792 -0.537837 13.9658 1.65805L13.968 1.66019L14.4916 2.16753L15.0151 1.6603ZM19.1436 1.39768C17.9434 1.39768 16.799 1.86013 15.9605 2.67294L15.9604 2.67306L14.9642 3.63831C14.6994 3.89485 14.2837 3.89484 14.019 3.6383L13.025 2.6752C13.0247 2.67485 13.0243 2.67451 13.024 2.67416C11.2671 0.988153 8.42104 0.994824 6.67271 2.68885C4.9437 4.3642 4.93726 7.06297 6.65755 8.74598C6.65791 8.74634 6.65827 8.74669 6.65863 8.74704L14.4916 16.3368L22.3268 8.74484L22.3269 8.74473C23.1646 7.93342 23.6284 6.84055 23.6284 5.70892C23.6284 4.5773 23.1646 3.48447 22.3269 2.67316L22.3267 2.67294C21.4882 1.86013 20.3438 1.39768 19.1436 1.39768Z" fill="#CDCDCD"/>
</svg>
