<svg width="29" height="30" viewBox="0 0 29 30" fill="none" xmlns="http://www.w3.org/2000/svg">
<path d="M6.32166 29.3865C6.32166 29.5737 6.27809 29.7068 6.19095 29.7856C6.10381 29.8645 5.96285 29.9039 5.76807 29.9039H2.30809C2.0723 29.9039 1.9134 29.8645 1.83139 29.7856C1.7545 29.7068 1.71605 29.5713 1.71605 29.3791V27.9229C1.71605 27.7357 1.75962 27.6026 1.84676 27.5238C1.9339 27.44 2.07486 27.3981 2.26965 27.3981H5.72962C5.96541 27.3981 6.12175 27.4375 6.19864 27.5164C6.28066 27.5952 6.32166 27.7332 6.32166 27.9303V29.3865ZM4.40714 24.0866C4.37639 24.2246 4.33026 24.3724 4.26875 24.5301C4.21236 24.6829 4.1406 24.8405 4.05346 25.0032C4.10984 25.082 4.17904 25.1633 4.26106 25.2471C4.34307 25.3309 4.43021 25.4122 4.52248 25.491C4.61474 25.5699 4.70701 25.6463 4.79927 25.7202C4.89154 25.7892 4.97612 25.8483 5.05301 25.8976C5.07864 25.9124 5.09401 25.937 5.09914 25.9715C5.10426 26.0011 5.09401 26.0282 5.06838 26.0528L4.79927 26.3928C4.78902 26.4076 4.76596 26.4224 4.73008 26.4372C4.69419 26.452 4.64806 26.4446 4.59168 26.415C4.53017 26.3805 4.4584 26.3337 4.37639 26.2746C4.2995 26.2154 4.21749 26.1514 4.13035 26.0824C4.04833 26.0084 3.96632 25.9321 3.8843 25.8532C3.80229 25.7744 3.72796 25.698 3.66133 25.6241C3.48192 25.8655 3.28201 26.0971 3.0616 26.3189C2.84631 26.5357 2.61308 26.7304 2.36191 26.9029C2.2799 26.9571 2.21583 26.9595 2.16969 26.9102L1.84676 26.5776C1.82113 26.553 1.80832 26.5259 1.80832 26.4963C1.80832 26.4618 1.82626 26.4322 1.86214 26.4076C1.95441 26.3386 2.04411 26.2672 2.13125 26.1932C2.21839 26.1193 2.30553 26.0429 2.39267 25.9641C2.27477 25.8754 2.15688 25.7793 2.03898 25.6758C1.92109 25.5674 1.81601 25.4565 1.72374 25.3432C1.58534 25.5304 1.429 25.7103 1.25472 25.8828C1.08557 26.0503 0.895911 26.2056 0.685749 26.3485C0.644742 26.3731 0.608861 26.3904 0.578105 26.4002C0.552476 26.4051 0.526846 26.3953 0.501217 26.3706L0.155219 26.0232C0.134716 26.0035 0.127027 25.9764 0.132153 25.9419C0.137279 25.9074 0.157782 25.8779 0.193664 25.8532C0.54735 25.6019 0.839526 25.3235 1.07019 25.018C1.30598 24.7075 1.45976 24.4266 1.53152 24.1753C1.55715 24.1014 1.56484 24.0521 1.55459 24.0275C1.54434 24.0028 1.49564 23.9905 1.4085 23.9905H0.639616C0.603735 23.9905 0.578105 23.9782 0.562728 23.9535C0.54735 23.9289 0.539661 23.9018 0.539661 23.8722V23.4583C0.539661 23.3844 0.575542 23.3474 0.647305 23.3474H1.76219C1.96722 23.3474 2.12612 23.3844 2.23889 23.4583C2.35166 23.5273 2.40805 23.6258 2.40805 23.754C2.40805 23.8131 2.40292 23.8772 2.39267 23.9461C2.38242 24.0151 2.3696 24.0767 2.35423 24.1309C2.3286 24.2295 2.29272 24.3305 2.24658 24.434C2.20557 24.5375 2.15688 24.641 2.10049 24.7445C2.19789 24.8775 2.31322 25.0081 2.44649 25.1362C2.58489 25.2594 2.72073 25.3678 2.854 25.4615C3.03341 25.2397 3.18206 25.0204 3.29995 24.8036C3.42297 24.5818 3.51268 24.3675 3.56906 24.1605C3.58444 24.0915 3.58957 24.0472 3.58444 24.0275C3.57931 24.0028 3.53574 23.9905 3.45373 23.9905H2.7156C2.67972 23.9905 2.65153 23.9782 2.63102 23.9535C2.61565 23.9289 2.60796 23.9018 2.60796 23.8722V23.4583C2.60796 23.3844 2.6464 23.3474 2.72329 23.3474H3.84586C4.0509 23.3474 4.20467 23.3844 4.30719 23.4583C4.40971 23.5273 4.46097 23.6258 4.46097 23.754C4.46097 23.8082 4.45328 23.8624 4.4379 23.9166C4.42765 23.9708 4.4174 24.0275 4.40714 24.0866ZM6.32935 26.925C6.32935 26.9497 6.3191 26.9743 6.2986 26.9989C6.27809 27.0187 6.25503 27.0285 6.2294 27.0285H5.58354C5.55791 27.0285 5.53484 27.0187 5.51434 26.9989C5.49383 26.9743 5.48358 26.9497 5.48358 26.925V23.0961C5.48358 23.032 5.5169 23 5.58354 23H6.2294C6.29603 23 6.32935 23.032 6.32935 23.0961V26.925ZM5.44514 28.1742C5.44514 28.1299 5.43745 28.1028 5.42207 28.0929C5.40669 28.0781 5.3785 28.0707 5.33749 28.0707H2.70022C2.65409 28.0707 2.62333 28.0757 2.60796 28.0855C2.59771 28.0954 2.59258 28.1225 2.59258 28.1668V29.1278C2.59258 29.1721 2.59771 29.1992 2.60796 29.2091C2.62333 29.2189 2.65409 29.2239 2.70022 29.2239H5.33749C5.38363 29.2239 5.41182 29.2189 5.42207 29.2091C5.43745 29.1992 5.44514 29.1721 5.44514 29.1278V28.1742Z" fill="black"/>
<path d="M9.71574 25.735C9.47483 25.735 9.27492 25.799 9.11601 25.9271C8.95711 26.0553 8.87766 26.2105 8.87766 26.3928C8.87766 26.5801 8.95711 26.7402 9.11601 26.8733C9.27492 27.0063 9.47483 27.0729 9.71574 27.0729C9.96179 27.0729 10.1617 27.0063 10.3155 26.8733C10.4744 26.7402 10.5538 26.5801 10.5538 26.3928C10.5538 26.2105 10.4744 26.0553 10.3155 25.9271C10.1617 25.799 9.96179 25.735 9.71574 25.735ZM9.71574 25.0771C9.94641 25.0771 10.1643 25.1116 10.3693 25.1806C10.5743 25.2496 10.7512 25.3432 10.8998 25.4615C11.0536 25.5797 11.1741 25.7202 11.2612 25.8828C11.3483 26.0405 11.3919 26.2105 11.3919 26.3928C11.3919 26.5801 11.3483 26.755 11.2612 26.9176C11.1741 27.0753 11.0536 27.2133 10.8998 27.3316C10.7512 27.4498 10.5743 27.5435 10.3693 27.6125C10.1643 27.6814 9.94385 27.7159 9.70805 27.7159C9.47739 27.7159 9.2621 27.6814 9.06219 27.6125C8.86228 27.5435 8.68544 27.4498 8.53166 27.3316C8.38301 27.2133 8.26512 27.0753 8.17798 26.9176C8.09084 26.755 8.04727 26.5801 8.04727 26.3928C8.04727 26.2105 8.09084 26.0405 8.17798 25.8828C8.26512 25.7202 8.38301 25.5797 8.53166 25.4615C8.68544 25.3432 8.86228 25.2496 9.06219 25.1806C9.26723 25.1116 9.48508 25.0771 9.71574 25.0771ZM11.8071 24.7001C11.8071 24.7346 11.7943 24.7642 11.7687 24.7888C11.7482 24.8085 11.7225 24.8184 11.6918 24.8184H7.61669C7.58594 24.8184 7.55774 24.8061 7.53211 24.7814C7.50648 24.7568 7.49367 24.7272 7.49367 24.6927V24.2566C7.49367 24.232 7.50648 24.2073 7.53211 24.1827C7.56287 24.158 7.59362 24.1457 7.62438 24.1457H11.6918C11.7225 24.1457 11.7482 24.158 11.7687 24.1827C11.7943 24.2024 11.8071 24.227 11.8071 24.2566V24.7001ZM10.8152 23.7096C10.8152 23.7392 10.8024 23.7663 10.7768 23.7909C10.7563 23.8156 10.7255 23.8279 10.6845 23.8279H8.67775C8.65725 23.8279 8.63162 23.818 8.60086 23.7983C8.57523 23.7786 8.56242 23.7515 8.56242 23.717V23.2809C8.56242 23.2415 8.57523 23.2119 8.60086 23.1922C8.63162 23.1725 8.65725 23.1626 8.67775 23.1626H10.6845C10.7204 23.1626 10.7512 23.1749 10.7768 23.1996C10.8024 23.2242 10.8152 23.2538 10.8152 23.2883V23.7096ZM13.491 29.8152C13.491 29.8448 13.4781 29.8669 13.4525 29.8817C13.4269 29.8965 13.4013 29.9039 13.3756 29.9039H9.31592C9.08526 29.9039 8.92892 29.8645 8.8469 29.7856C8.76489 29.7068 8.72388 29.5713 8.72388 29.3791V28.2334C8.72388 28.2087 8.7367 28.1841 8.76233 28.1595C8.78796 28.1348 8.81359 28.1225 8.83922 28.1225H9.49277C9.52865 28.1225 9.55684 28.1348 9.57734 28.1595C9.60297 28.1841 9.61579 28.2087 9.61579 28.2334V29.076C9.61579 29.1253 9.62604 29.1573 9.64654 29.1721C9.66705 29.1869 9.70293 29.1943 9.75419 29.1943H13.3756C13.4013 29.1943 13.4269 29.2042 13.4525 29.2239C13.4781 29.2436 13.491 29.2658 13.491 29.2904V29.8152ZM14.3444 26.0971C14.3444 26.1218 14.3316 26.144 14.306 26.1637C14.2855 26.1785 14.2598 26.1858 14.2291 26.1858H13.1911V28.3147C13.1911 28.3787 13.1578 28.4108 13.0911 28.4108H12.4068C12.3402 28.4108 12.3069 28.3787 12.3069 28.3147V23.0961C12.3069 23.032 12.3402 23 12.4068 23H13.0911C13.1578 23 13.1911 23.032 13.1911 23.0961V25.4762H14.2291C14.2598 25.4762 14.2855 25.4861 14.306 25.5058C14.3316 25.5255 14.3444 25.5477 14.3444 25.5723V26.0971Z" fill="black"/>
<path d="M15.4254 26.9768C15.3895 26.9916 15.3459 26.9989 15.2946 26.9989C15.2485 26.9989 15.2101 26.9718 15.1793 26.9176L14.941 26.548C14.9153 26.5086 14.9076 26.4692 14.9179 26.4298C14.9333 26.3854 14.9666 26.3509 15.0179 26.3263C15.5868 26.075 16.0815 25.767 16.5018 25.4023C16.9272 25.0377 17.2425 24.6508 17.4475 24.2418C17.4732 24.1975 17.4834 24.158 17.4783 24.1235C17.4732 24.0891 17.4296 24.0718 17.3476 24.0718H15.4177C15.3818 24.0718 15.3536 24.0595 15.3331 24.0348C15.3177 24.0102 15.31 23.9831 15.31 23.9535V23.4657C15.31 23.3967 15.3485 23.3622 15.4254 23.3622H17.8935C18.119 23.3622 18.2856 23.4016 18.3932 23.4805C18.506 23.5593 18.5496 23.68 18.524 23.8427C18.5137 23.8969 18.5009 23.9535 18.4855 24.0127C18.4701 24.0718 18.4522 24.1235 18.4317 24.1679C18.3702 24.3256 18.2882 24.4857 18.1856 24.6484C18.0883 24.811 17.9755 24.9711 17.8473 25.1288C17.9396 25.2175 18.0421 25.3062 18.1549 25.3949C18.2677 25.4836 18.383 25.5674 18.5009 25.6463C18.6188 25.7251 18.7367 25.799 18.8546 25.868C18.9725 25.9321 19.0827 25.9887 19.1852 26.038C19.2416 26.0627 19.2775 26.0898 19.2928 26.1193C19.3082 26.144 19.298 26.1809 19.2621 26.2302L19.0084 26.6441C18.9571 26.7328 18.8802 26.7526 18.7777 26.7033C18.6854 26.6589 18.5778 26.6023 18.4548 26.5333C18.3369 26.4593 18.2113 26.3756 18.078 26.2819C17.9499 26.1883 17.8217 26.0922 17.6936 25.9937C17.5654 25.8902 17.4475 25.7867 17.3399 25.6832C17.0682 25.9395 16.7683 26.1785 16.4403 26.4002C16.1174 26.622 15.779 26.8141 15.4254 26.9768ZM20.5692 29.8965C20.5692 29.9212 20.5564 29.9433 20.5307 29.963C20.5102 29.9877 20.4846 30 20.4539 30H19.8003C19.7696 30 19.7414 29.9877 19.7157 29.963C19.6901 29.9433 19.6773 29.9212 19.6773 29.8965V28.2555C19.6773 28.2013 19.667 28.1668 19.6465 28.1521C19.626 28.1373 19.5901 28.1299 19.5389 28.1299H16.0635C16.0379 28.1299 16.0123 28.1225 15.9866 28.1077C15.9661 28.088 15.9559 28.0658 15.9559 28.0412V27.5164C15.9559 27.4868 15.9661 27.4646 15.9866 27.4498C16.0123 27.4301 16.0379 27.4203 16.0635 27.4203H20.054C20.2488 27.4203 20.3821 27.4597 20.4539 27.5385C20.5307 27.6174 20.5692 27.7504 20.5692 27.9377V29.8965ZM21.7302 25.3728C21.7302 25.3974 21.7174 25.4196 21.6918 25.4393C21.6713 25.459 21.6456 25.4688 21.6149 25.4688H20.5769V26.9546C20.5769 27.0187 20.5436 27.0507 20.4769 27.0507H19.7926C19.726 27.0507 19.6927 27.0162 19.6927 26.9472V23.0961C19.6927 23.032 19.726 23 19.7926 23H20.4769C20.5436 23 20.5769 23.032 20.5769 23.0961V24.7592H21.6149C21.6456 24.7592 21.6713 24.7691 21.6918 24.7888C21.7174 24.8036 21.7302 24.8258 21.7302 24.8553V25.3728Z" fill="black"/>
<path d="M28.1306 26.6294C28.1306 26.6983 28.0973 26.7328 28.0307 26.7328H27.3464C27.2797 26.7328 27.2464 26.6983 27.2464 26.6294V25.2545H26.0393C25.9931 25.4319 25.9188 25.5994 25.8163 25.7571C25.7138 25.9099 25.5856 26.0429 25.4318 26.1563C25.2781 26.2696 25.1012 26.3608 24.9013 26.4298C24.7014 26.4938 24.4835 26.5259 24.2478 26.5259C23.971 26.5259 23.7198 26.4815 23.4942 26.3928C23.2687 26.2992 23.0765 26.176 22.9176 26.0232C22.7587 25.8705 22.6357 25.6955 22.5485 25.4984C22.4614 25.2964 22.4178 25.0869 22.4178 24.8701C22.4178 24.6484 22.4614 24.4365 22.5485 24.2344C22.6357 24.0324 22.7587 23.855 22.9176 23.7022C23.0765 23.5495 23.2687 23.4287 23.4942 23.34C23.7198 23.2464 23.971 23.1996 24.2478 23.1996C24.4938 23.1996 24.7168 23.2365 24.9167 23.3105C25.1217 23.3794 25.3011 23.4755 25.4549 23.5987C25.6138 23.717 25.742 23.8599 25.8393 24.0275C25.9419 24.1901 26.0136 24.3625 26.0546 24.5449H27.2464V23.0961C27.2464 23.032 27.2797 23 27.3464 23H28.0307C28.0973 23 28.1306 23.032 28.1306 23.0961V26.6294ZM28.1306 29.4087C28.1306 29.5762 28.0896 29.6994 28.0076 29.7782C27.9256 29.862 27.7744 29.9039 27.554 29.9039H24.1555C23.9299 29.9039 23.7762 29.8669 23.6942 29.793C23.6121 29.7191 23.5711 29.5836 23.5711 29.3865V27.1985C23.5711 27.1739 23.5814 27.1542 23.6019 27.1394C23.6224 27.1197 23.6455 27.1098 23.6711 27.1098H24.3477C24.3733 27.1098 24.3964 27.1197 24.4169 27.1394C24.4425 27.1542 24.4554 27.1739 24.4554 27.1985V27.8786H27.2464V27.169C27.2464 27.1443 27.2566 27.1221 27.2772 27.1024C27.2977 27.0827 27.3207 27.0729 27.3464 27.0729H28.0307C28.0563 27.0729 28.0794 27.0827 28.0999 27.1024C28.1204 27.1221 28.1306 27.1443 28.1306 27.169V29.4087ZM25.2396 24.8701C25.2396 24.742 25.2165 24.6188 25.1704 24.5005C25.1243 24.3823 25.0576 24.2788 24.9705 24.1901C24.8834 24.1014 24.7783 24.0299 24.6553 23.9757C24.5322 23.9215 24.3964 23.8944 24.2478 23.8944C24.0991 23.8944 23.9633 23.9215 23.8402 23.9757C23.7223 24.0299 23.6198 24.1014 23.5327 24.1901C23.4456 24.2788 23.3789 24.3823 23.3328 24.5005C23.2866 24.6188 23.2636 24.742 23.2636 24.8701C23.2636 24.9982 23.2866 25.1214 23.3328 25.2397C23.3789 25.353 23.4456 25.4541 23.5327 25.5428C23.6198 25.6315 23.7223 25.7029 23.8402 25.7571C23.9633 25.8064 24.0991 25.831 24.2478 25.831C24.3964 25.831 24.5322 25.8064 24.6553 25.7571C24.7783 25.7029 24.8834 25.6315 24.9705 25.5428C25.0576 25.4541 25.1243 25.353 25.1704 25.2397C25.2165 25.1214 25.2396 24.9982 25.2396 24.8701ZM27.2464 28.566H24.4554V29.0834C24.4554 29.1672 24.5015 29.2091 24.5938 29.2091H27.108C27.2003 29.2091 27.2464 29.1672 27.2464 29.0834V28.566Z" fill="black"/>
<path fill-rule="evenodd" clip-rule="evenodd" d="M14.5456 1.6603C15.646 0.593584 17.1317 0 18.6741 0C20.2164 0 21.702 0.593501 22.8024 1.66009C23.9044 2.72745 24.5305 4.18311 24.5305 5.70892C24.5305 7.23467 23.9045 8.69034 22.8025 9.7577C22.8025 9.75773 22.8024 9.75777 22.8024 9.75781L14.4947 17.8076C14.2299 18.0641 13.8143 18.0641 13.5495 17.8076L6.23792 10.723L5.24175 9.75774L5.23953 9.75558C2.95351 7.52059 2.96205 3.90072 5.25805 1.67599C7.53474 -0.529986 11.2097 -0.537837 13.4963 1.65805L13.4985 1.66019L14.0221 2.16753L14.5456 1.6603ZM18.6741 1.39768C17.4739 1.39768 16.3295 1.86013 15.491 2.67294L15.4909 2.67306L14.4947 3.63831C14.2299 3.89485 13.8143 3.89484 13.5495 3.6383L12.5556 2.6752C12.5552 2.67485 12.5548 2.67451 12.5545 2.67416C10.7977 0.988153 7.95156 0.994824 6.20323 2.68885C4.47421 4.3642 4.46778 7.06297 6.18807 8.74598C6.18843 8.74634 6.18879 8.74669 6.18915 8.74704L14.0221 16.3368L21.8573 8.74484L21.8574 8.74473C22.6951 7.93342 23.1589 6.84055 23.1589 5.70892C23.1589 4.5773 22.6951 3.48447 21.8574 2.67316L21.8572 2.67294C21.0187 1.86013 19.8743 1.39768 18.6741 1.39768Z" fill="#040000"/>
</svg>
